<?xml version="1.0" encoding="iso-8859-1"?>
<!-- Generator: Adobe Illustrator 19.0.0, SVG Export Plug-In . SVG Version: 6.00 Build 0)  -->
<svg version="1.1" id="Layer_1" xmlns="http://www.w3.org/2000/svg" xmlns:xlink="http://www.w3.org/1999/xlink" x="0px" y="0px"
	 viewBox="0 0 512 512" style="enable-background:new 0 0 512 512;" xml:space="preserve">
<circle style="fill:#FAD55C;" cx="256" cy="256" r="256"/>
<path style="fill:#E3C04D;" d="M235.012,511.138l-88.842-88.842l221.817-289.844L511.25,275.715
	C501.184,407.889,390.753,512,256,512C248.93,512,241.932,511.7,235.012,511.138z"/>
<path style="fill:#FF8C8A;" d="M155.485,127.011H356.52c8.171,0,14.857,6.687,14.857,14.857v268.873
	c0,8.171-6.687,14.857-14.857,14.857H155.485c-8.176,0-14.863-6.687-14.863-14.857V141.868
	C140.623,133.697,147.309,127.011,155.485,127.011z"/>
<polygon style="fill:#F8F8F8;" points="149.143,134.926 362.862,134.926 362.862,417.683 149.143,417.683 "/>
<path style="fill:#817C85;" d="M222.873,109.669h13.112c-0.445-1.234-0.684-2.535-0.684-3.874c0-8.393,9.266-15.202,20.699-15.202
	c11.433,0,20.699,6.809,20.699,15.202c0,1.34-0.239,2.64-0.684,3.874h13.117c2.568,0,4.063,2.195,4.669,4.674l5.619,22.828
	c0.611,2.49-2.112,4.674-4.674,4.674h-76.525c-2.557,0-5.186-2.151-4.674-4.674l4.652-22.828
	C218.71,111.826,220.3,109.669,222.873,109.669z"/>
<path style="fill:#99959C;" d="M207.694,136.832h96.607c2.935,0,5.325,2.396,5.325,5.325l0,0c0,2.929-2.39,5.325-5.325,5.325
	h-96.607c-2.924,0-5.319-2.396-5.319-5.325l0,0C202.374,139.228,204.77,136.832,207.694,136.832z"/>
<g>
	<polygon style="fill:#B3B3BD;" points="177.357,198.145 334.649,198.145 334.649,204.742 177.357,204.742 	"/>
	<polygon style="fill:#B3B3BD;" points="177.357,219.533 334.649,219.533 334.649,226.13 177.357,226.13 	"/>
	<polygon style="fill:#B3B3BD;" points="177.357,240.921 334.649,240.921 334.649,247.524 177.357,247.524 	"/>
	<polygon style="fill:#B3B3BD;" points="177.357,262.314 334.649,262.314 334.649,268.912 177.357,268.912 	"/>
	<polygon style="fill:#B3B3BD;" points="177.357,283.702 334.649,283.702 334.649,290.3 177.357,290.3 	"/>
	<polygon style="fill:#B3B3BD;" points="177.357,305.09 334.649,305.09 334.649,311.688 177.357,311.688 	"/>
	<polygon style="fill:#B3B3BD;" points="177.357,326.478 334.649,326.478 334.649,333.081 177.357,333.081 	"/>
	<polygon style="fill:#B3B3BD;" points="177.357,347.872 244.572,347.872 244.572,354.469 177.357,354.469 	"/>
</g>
<g>
</g>
<g>
</g>
<g>
</g>
<g>
</g>
<g>
</g>
<g>
</g>
<g>
</g>
<g>
</g>
<g>
</g>
<g>
</g>
<g>
</g>
<g>
</g>
<g>
</g>
<g>
</g>
<g>
</g>
</svg>
