<svg height="512pt" viewBox="0 0 512 512" width="512pt" xmlns="http://www.w3.org/2000/svg"><path d="m512 256c0 141.386719-114.613281 256-256 256s-256-114.613281-256-256 114.613281-256 256-256 256 114.613281 256 256zm0 0" fill="#fad818"/><path d="m512 256c0-11.761719-.808594-23.332031-2.347656-34.671875l-104.753906-104.753906c-37.222657-39.734375-328.058594 251.101562-288.324219 288.324219l104.753906 104.753906c11.339844 1.539062 22.910156 2.347656 34.671875 2.347656 141.386719 0 256-114.613281 256-256zm0 0" fill="#f4b913"/><path d="m460 256c0 112.667969-91.332031 204-204 204s-204-91.332031-204-204 91.332031-204 204-204 204 91.332031 204 204zm0 0" fill="#57545c"/><path d="m460 256c0 112.671875-91.328125 204-204 204v-408c112.671875 0 204 91.328125 204 204zm0 0" fill="#262628"/><path d="m420 256c0 90.574219-73.425781 164-164 164s-164-73.425781-164-164 73.425781-164 164-164 164 73.425781 164 164zm0 0" fill="#fff"/><path d="m420 256c0 90.570312-73.429688 164-164 164v-328c90.570312 0 164 73.429688 164 164zm0 0" fill="#fff5ca"/><path d="m241 107.09375h30v31.3125h-30zm0 0" fill="#57545c"/><path d="m256 107.089844h15v31.320312h-15zm0 0" fill="#262628"/><path d="m241 373.59375h30v31.3125h-30zm0 0" fill="#57545c"/><path d="m256 373.589844h15v31.320312h-15zm0 0" fill="#262628"/><path d="m241 245.808594v-67.808594l15-16 15 16v67.808594zm0 0" fill="#57545c"/><path d="m271 178v67.808594h-15v-83.808594zm0 0" fill="#262628"/><path d="m257.273438 277.214844-55.019532 55.019531-21.921875.707031.707031-21.921875 55.019532-55.019531zm0 0" fill="#57545c"/><path d="m281 256c0 13.808594-11.191406 25-25 25s-25-11.191406-25-25 11.191406-25 25-25 25 11.191406 25 25zm0 0" fill="#ff6339"/><path d="m281 256c0 13.808594-11.191406 25-25 25v-50c5.621094 0 10.820312 1.859375 15 5 6.070312 4.558594 10 11.820312 10 20zm0 0" fill="#ff6339"/><path d="m373.59375 241h31.3125v30h-31.3125zm0 0" fill="#262628"/><path d="m107.09375 241h31.3125v30h-31.3125zm0 0" fill="#57545c"/></svg>