<svg height="512pt" viewBox="0 0 512 512" width="512pt" xmlns="http://www.w3.org/2000/svg"><path d="m512 256c0 141.386719-114.613281 256-256 256s-256-114.613281-256-256 114.613281-256 256-256 256 114.613281 256 256zm0 0" fill="#0061c6"/><path d="m512 256c0-9.59375-.546875-19.054688-1.574219-28.375l-83.917969-83.917969-341.015624 39.480469 22.007812 22.0625-1.84375 6.300781 12.09375 11.828125v128.046875l-12.09375 27.574219-22.554688 42.09375 68.867188 68.871094c31.789062 14.15625 66.988281 22.035156 104.03125 22.035156 141.386719 0 256-114.613281 256-256zm0 0" fill="#00296d"/><path d="m117.835938 181.550781h276.328124v199.875h-276.328124zm0 0" fill="#797880"/><path d="m256 181.550781h138.160156v199.871094h-138.160156zm0 0" fill="#57545c"/><path d="m117.75 195.351562h30v172.269532h-30zm0 0" fill="#fff"/><path d="m105.65625 351.425781h54.1875v30h-54.1875zm0 0" fill="#dadadc"/><path d="m105.65625 181.550781h54.1875v30h-54.1875zm0 0" fill="#dadadc"/><path d="m199.917969 195.351562h30v172.269532h-30zm0 0" fill="#fff"/><g fill="#dadadc"><path d="m187.824219 351.425781h54.183593v30h-54.183593zm0 0"/><path d="m187.824219 181.550781h54.183593v30h-54.183593zm0 0"/><path d="m282.082031 195.351562h30v172.269532h-30zm0 0"/></g><path d="m269.992188 351.425781h54.183593v30h-54.183593zm0 0" fill="#cac7cd"/><path d="m269.992188 181.550781h54.183593v30h-54.183593zm0 0" fill="#cac7cd"/><path d="m364.25 195.351562h30v172.269532h-30zm0 0" fill="#dadadc"/><path d="m352.15625 351.425781h54.1875v30h-54.1875zm0 0" fill="#cac7cd"/><path d="m352.15625 181.550781h54.1875v30h-54.1875zm0 0" fill="#cac7cd"/><path d="m83.097656 421.09375v-42.09375h345.804688v42.09375" fill="#b0afb5"/><path d="m256 379h172.898438v42.089844h-172.898438zm0 0" fill="#8d8a94"/><path d="m257.277344 33.304688-171.785156 110.402343v39.480469h341.015624v-39.480469zm0 0" fill="#cac7cd"/><path d="m426.511719 143.710938v39.480468h-170.511719v-149.0625l1.28125-.820312zm0 0" fill="#b0afb5"/><path d="m85.492188 143.707031h341.015624v39.476563h-341.015624zm0 0" fill="#b0afb5"/><path d="m256 143.710938h170.511719v39.480468h-170.511719zm0 0" fill="#8d8a94"/><path d="m285.246094 100.171875c0 16.152344-13.09375 29.246094-29.246094 29.246094s-29.246094-13.09375-29.246094-29.246094 13.09375-29.246094 29.246094-29.246094 29.246094 13.09375 29.246094 29.246094zm0 0" fill="#fff"/><path d="m285.25 100.171875c0 16.148437-13.101562 29.25-29.25 29.25v-58.492187c16.148438 0 29.25 13.089843 29.25 29.242187zm0 0" fill="#dadadc"/></svg>