<svg height="512pt" viewBox="0 0 512 512" width="512pt" xmlns="http://www.w3.org/2000/svg"><path d="m512 256c0 141.386719-114.613281 256-256 256s-256-114.613281-256-256 114.613281-256 256-256 256 114.613281 256 256zm0 0" fill="#fad818"/><path d="m512 256c0-20.8125-2.503906-41.035156-7.1875-60.40625l-69.351562-69.355469-358.917969 276.28125 95.3125 95.3125c26.355469 9.167969 54.664062 14.167969 84.144531 14.167969 141.386719 0 256-114.613281 256-256zm0 0" fill="#f4b913"/><path d="m226.242188 139.535156-36.054688-36.054687h-113.644531v299.039062h358.914062v-262.984375zm0 0" fill="#57545c"/><path d="m90.730469 118.503906h327.378906v263.039063h-327.378906zm0 0" fill="#00ec88"/><path d="m256 118.5h162.109375v263.039062h-162.109375zm0 0" fill="#00ca76"/><path d="m90.730469 132.996094h327.378906v248.546875h-327.378906zm0 0" fill="#fff"/><path d="m256 133h162.109375v248.539062h-162.109375zm0 0" fill="#fff5ca"/><path d="m321.8125 126.234375-37.304688 37.304687h-207.964843v238.980469h358.914062v-276.285156zm0 0" fill="#797880"/><path d="m435.460938 126.238281v276.28125h-179.460938v-238.980469h28.511719l37.296875-37.300781zm0 0" fill="#57545c"/><path d="m329.378906 290.109375c0 40.523437-32.851562 73.375-73.378906 73.375s-73.378906-32.851563-73.378906-73.375c0-40.527344 32.851562-73.378906 73.378906-73.378906s73.378906 32.851562 73.378906 73.378906zm0 0" fill="#57545c"/><path d="m329.378906 290.109375c0 40.519531-32.847656 73.378906-73.378906 73.378906v-146.757812c40.53125 0 73.378906 32.847656 73.378906 73.378906zm0 0" fill="#3a383f"/></svg>