<svg width="360" height="300" xmlns="http://www.w3.org/2000/svg">
 <!-- Created with Method Draw - http://github.com/duopixel/Method-Draw/ -->

 <g>
  <title>background</title>
  <rect fill="#fff" id="canvas_background" height="302" width="362" y="-1" x="-1"/>
  <g display="none" overflow="visible" y="0" x="0" height="100%" width="100%" id="canvasGrid">
   <rect fill="url(#gridpattern)" stroke-width="0" y="0" x="0" height="100%" width="100%"/>
  </g>
 </g>
 <g>
  <title>Layer 1</title>
  <g stroke="null" id="svg_200">
   <g stroke="null" transform="matrix(0.23907441593724907,0,0,0.2354532165715291,-20002.194956073035,-12985.840005546956) " id="svg_5">
    <g stroke="null" id="svg_7">
     <ellipse stroke="null" id="svg_61" ry="39.5" rx="661.9" cy="56380.789216" cx="84490.699064" fill="#BFD299" opacity="0.55"/>
     <rect stroke="null" id="svg_62" height="383.5" width="22" fill="#043854" y="55556.289216" x="84359.199064"/>
     <rect stroke="null" id="svg_63" height="383.5" width="22" fill="#043854" y="55556.289216" x="84613.899064"/>
     <rect stroke="null" id="svg_64" height="137.6" width="310.3" fill="#043854" y="55581.189216" x="84343.099064"/>
     <path stroke="null" id="svg_65" d="m84638.799064,55647.789216c0,38.4 -31.1,69.5 -69.5,69.5l-144.9,0c-38.4,0 -69.5,-31.1 -69.5,-69.5l0,0c0,-38.4 31.1,-69.5 69.5,-69.5l144.9,0c38.3,0 69.5,31.1 69.5,69.5l0,0z" fill="#C02530"/>
     <g stroke="null" id="svg_66">
      <g stroke="null" id="svg_67">
       <rect stroke="null" id="svg_68" height="543.1" width="20.5" fill="#043854" y="55800.789216" x="84338.699064"/>
       <rect stroke="null" id="svg_69" height="543.1" width="20.5" fill="#043854" y="55800.789216" x="84659.299064"/>
      </g>
     </g>
     <path stroke="null" id="svg_70" d="m84394.799064,55739.089216c0,0 -102.7,75.2 -123.5,102.7c-20.9,27.4 -13.7,59.3 31.3,54.9s38.4,-25.3 38.4,-25.3l64.2,-45l-10.4,-87.3z" fill="#122341"/>
     <path stroke="null" id="svg_71" d="m84474.699064,55685.089216c0,0 -74.7,45.4 -87.1,60c-12.4,14.6 0,172 0,172l226.2,0c0,0 -0.7,-149.3 0,-167.6c0.7,-18.3 -111.3,-68.1 -111.3,-68.1l-27.8,3.7z" fill="#122341"/>
     <path stroke="null" id="svg_72" d="m84538.499064,55869.589216c0,0 -33.7,-8.1 -53.4,-3.7c-19.8,4.4 -22.7,13.2 -13.9,22.7s71,9.5 71,9.5l-3.7,-28.5z" fill="#E6B35D"/>
     <path stroke="null" id="svg_73" d="m84554.599064,55867.389216c0,0 -12.4,-5.9 -19.8,-1.5s-1.5,25.6 -1.5,25.6l14.6,5.9c0.1,0 11.8,3.7 6.7,-30z" fill="#C6AA9D"/>
     <path stroke="null" id="svg_74" d="m84466.399064,55713.889216c0,0 28,144.4 29.1,146.6c1.1,2.2 34,-152.6 34,-152.6l-63.1,6z" fill="#C6AA9D"/>
     <path stroke="null" id="svg_75" d="m84495.499064,55860.389216c0.6,1.2 11.2,-46.8 20.4,-89.3l-11.4,-41.9l-16.3,-0.5l-9.7,47c7.7,39.5 16.4,83.5 17,84.7z" fill="#C02530"/>
     <polygon stroke="null" id="svg_76" points="84472.8046875,55718.793349877 84483.203125,55724.293349877 84515.6015625,55724.293349877 84521.1015625,55714.391006127 84518.40625,55709.992568627 84504.1015625,55716.094131127 84477.203125,55713.891006127 " fill="#C02530"/>
     <g stroke="null" id="svg_77">
      <path stroke="null" id="svg_78" d="m84484.699064,55686.589216l-8.1,-1.5c0,0 -3.7,2.2 -13.2,15.4s-6.6,32.9 -6.6,32.9l19,-16.8l19,2.9l0,-28.5l-10.1,-4.4z" fill="#C6AA9D"/>
      <path stroke="null" id="svg_79" d="m84511.199064,55686.589216l8.1,-1.5c0,0 3.7,2.2 13.2,15.4c9.5,13.2 6.6,32.9 6.6,32.9l-19,-16.8l-19,2.9l0,-28.5l10.1,-4.4z" fill="#C6AA9D"/>
     </g>
     <rect stroke="null" id="svg_80" height="60" width="84.9" fill="#122341" y="56277.989216" x="84381.099064"/>
     <rect stroke="null" id="svg_81" height="60" width="84.9" fill="#122341" y="56277.989216" x="84542.099064"/>
     <g stroke="null" id="svg_82">
      <rect stroke="null" id="svg_83" height="408.4" width="858.6" fill="#3FB1AB" y="55901.089216" x="84038.599064"/>
      <g stroke="null" id="svg_84">
       <rect stroke="null" id="svg_85" height="434.8" width="65.1" fill="#3FB1AB" y="55941.289216" x="84037.699064"/>
       <rect stroke="null" id="svg_86" height="11" width="110.5" fill="#17818C" y="56378.289216" x="84014.999064"/>
       <path stroke="null" id="svg_87" d="m84123.699064,56379.789216c-0.2,-9.7 -8.1,-17.6 -17.9,-17.6l-71,0c-9.8,0 -17.7,7.8 -17.9,17.6l106.8,0z" fill="#3FB1AB"/>
      </g>
      <g stroke="null" id="svg_88">
       <rect stroke="null" id="svg_89" height="434.8" width="65.1" fill="#3FB1AB" y="55941.289216" x="84836.999064"/>
       <rect stroke="null" id="svg_90" height="11" width="110.5" fill="#17818C" y="56378.289216" x="84814.299064"/>
       <path stroke="null" id="svg_91" d="m84922.999064,56379.789216c-0.2,-9.7 -8.1,-17.6 -17.9,-17.6l-71,0c-9.8,0 -17.7,7.8 -17.9,17.6l106.8,0z" fill="#3FB1AB"/>
      </g>
      <rect stroke="null" id="svg_92" height="408.4" width="723.9" fill="#043854" y="55901.089216" x="84105.899064"/>
      <rect stroke="null" id="svg_93" height="408.4" width="697.6" fill="#17818C" y="55901.089216" x="84119.099064"/>
      <rect stroke="null" id="svg_94" height="50.5" width="924.5" fill="#3FB1AB" y="55901.089216" x="84005.599064"/>
      <rect stroke="null" id="svg_95" height="8.8" width="924.5" fill="#043854" y="55942.789216" x="84005.599064"/>
      <rect stroke="null" id="svg_96" height="8.8" width="924.5" fill="#17818C" y="55901.089216" x="84005.599064"/>
     </g>
     <g stroke="null" id="svg_97">
      <path stroke="null" id="svg_98" d="m84214.599064,55879.289216c0,12.7 -2.6,23 -15.3,23l-157.1,0c-12.7,0 -15.3,-10.3 -15.3,-23l0,0c0,-12.7 2.6,-23 15.3,-23l157.1,0c12.7,0 15.3,10.3 15.3,23l0,0z" fill="#C02530"/>
      <rect stroke="null" id="svg_99" height="46" width="152" fill="#1F3B51" y="55856.289216" x="84044.499064"/>
      <rect stroke="null" id="svg_100" height="46" width="146.9" fill="#305674" y="55856.289216" x="84047.099064"/>
      <g stroke="null" id="svg_101">
       <g stroke="null" id="svg_102">
        <path stroke="null" id="svg_103" d="m84090.199064,55881.089216c0,2.5 0,3.9 0.4,4.2c0.3,0.3 0.8,0.4 2.4,0.4c1,0 1.8,0 2.3,-0.5c0.2,-0.3 0.5,-0.8 0.5,-1.2c0,-0.2 0.1,-0.3 0.2,-0.3c0.1,0 0.2,0.1 0.2,0.3c0,0.2 -0.1,1.7 -0.3,2.3c-0.1,0.4 -0.2,0.5 -1.2,0.5c-1.4,0 -2.4,0 -3.3,-0.1c-0.9,0 -1.6,-0.1 -2.4,-0.1c-0.2,0 -0.6,0 -1.1,0c-0.5,0 -1,0 -1.4,0c-0.3,0 -0.4,-0.1 -0.4,-0.2c0,-0.1 0.1,-0.2 0.3,-0.2c0.3,0 0.5,0 0.7,-0.1c0.4,-0.1 0.5,-0.5 0.6,-1.1c0.1,-0.8 0.1,-2.4 0.1,-4.2l0,-3.5c0,-3 0,-3.5 0,-4.2c0,-0.7 -0.2,-1 -0.8,-1.1c-0.2,0 -0.4,-0.1 -0.6,-0.1c-0.2,0 -0.3,0 -0.3,-0.2c0,-0.1 0.1,-0.2 0.4,-0.2c0.9,0 2.2,0.1 2.7,0.1c0.5,0 1.9,-0.1 2.7,-0.1c0.3,0 0.4,0 0.4,0.2c0,0.1 -0.1,0.2 -0.4,0.2c-0.2,0 -0.5,0 -0.8,0.1c-0.5,0.1 -0.7,0.4 -0.7,1.1c0,0.6 0,1.2 0,4.2l0,3.8l-0.2,0z" fill="#C02530"/>
        <path stroke="null" id="svg_104" d="m84112.199064,55881.689216c-0.1,0 -0.1,0 -0.2,0.2l-1.1,2.8c-0.2,0.5 -0.3,1 -0.3,1.2c0,0.4 0.2,0.6 0.8,0.6l0.3,0c0.2,0 0.3,0 0.3,0.2c0,0.2 -0.1,0.2 -0.3,0.2c-0.6,0 -1.5,-0.1 -2.1,-0.1c-0.2,0 -1.3,0.1 -2.3,0.1c-0.3,0 -0.4,0 -0.4,-0.2c0,-0.1 0.1,-0.2 0.2,-0.2c0.2,0 0.5,0 0.6,0c0.9,-0.1 1.3,-0.8 1.7,-1.8l4.9,-12.3c0.2,-0.6 0.4,-0.8 0.5,-0.8c0.2,0 0.3,0.2 0.5,0.6c0.5,1.1 3.6,9.1 4.9,12.1c0.7,1.8 1.3,2 1.7,2.1c0.3,0.1 0.6,0.1 0.8,0.1c0.2,0 0.3,0 0.3,0.2c0,0.2 -0.2,0.2 -0.9,0.2c-0.7,0 -2.1,0 -3.7,0c-0.4,0 -0.6,0 -0.6,-0.2c0,-0.1 0.1,-0.2 0.3,-0.2c0.1,0 0.3,-0.2 0.2,-0.5l-1.6,-4.2c0,-0.1 -0.1,-0.1 -0.2,-0.1l-4.3,0zm4,-1c0.1,0 0.1,-0.1 0.1,-0.1l-1.8,-4.8c0,-0.1 0,-0.2 -0.1,-0.2c-0.1,0 -0.1,0.1 -0.1,0.2l-1.8,4.8c0,0.1 0,0.1 0.1,0.1l3.6,0z" fill="#C02530"/>
        <path stroke="null" id="svg_105" d="m84135.199064,55873.889216c-0.2,-0.7 -0.5,-1.2 -0.7,-1.4c-0.2,-0.1 -0.6,-0.2 -0.8,-0.2c-0.2,0 -0.3,0 -0.3,-0.2c0,-0.1 0.2,-0.2 0.4,-0.2c1,0 2.1,0.1 2.3,0.1c0.2,0 1,-0.1 2.2,-0.1c0.3,0 0.4,0.1 0.4,0.2c0,0.2 -0.2,0.2 -0.4,0.2c-0.2,0 -0.4,0 -0.5,0.1c-0.2,0.1 -0.2,0.2 -0.2,0.4c0,0.3 0.2,0.9 0.4,1.8c0.3,1.3 2.2,7.2 2.5,8.3l0.1,0l3.8,-10.2c0.2,-0.6 0.3,-0.7 0.5,-0.7c0.2,0 0.3,0.3 0.6,0.9l4.1,9.9l0.1,0c0.4,-1.3 1.9,-6.5 2.6,-8.8c0.1,-0.5 0.2,-0.9 0.2,-1.1c0,-0.3 -0.2,-0.6 -0.9,-0.6c-0.2,0 -0.3,-0.1 -0.3,-0.2c0,-0.1 0.2,-0.2 0.5,-0.2c1,0 1.9,0.1 2,0.1c0.1,0 1,-0.1 1.6,-0.1c0.2,0 0.4,0 0.4,0.2c0,0.1 -0.1,0.2 -0.3,0.2c-0.2,0 -0.5,0 -0.7,0.1c-0.5,0.2 -0.7,1 -1.1,2.1c-0.9,2.5 -3,8.7 -3.9,11.7c-0.2,0.7 -0.3,0.9 -0.6,0.9c-0.2,0 -0.3,-0.2 -0.6,-1l-4.1,-9.8l0,0c-0.4,1 -3,7.9 -3.8,9.7c-0.4,0.8 -0.5,1 -0.7,1c-0.2,0 -0.3,-0.2 -0.5,-0.7l-4.3,-12.4z" fill="#C02530"/>
       </g>
      </g>
     </g>
     <path stroke="null" id="svg_106" d="m84345.999064,55891.489216l0,-29.3c0,0 87.1,-2.2 139.1,3.7c52,5.9 68.1,26.4 68.1,26.4l-207.2,-0.8z" fill="#E8C287"/>
     <path stroke="null" id="svg_107" d="m84601.399064,55734.189216c0,0 110.2,80.1 131,107.6c20.9,27.4 13.7,59.3 -31.3,54.9c-45,-4.4 -38.4,-25.3 -38.4,-25.3l-64.2,-45l2.9,-92.2z" fill="#122341"/>
     <path stroke="null" id="svg_108" d="m84679.799064,55847.589216c0,0 -110.5,6.6 -120.8,9.5c-10.2,2.9 -17.6,26.4 -15.4,31.5c2.2,5.1 26.4,13.2 26.4,13.2s154.4,-2.9 164.7,-2.9c10.2,0 -8.1,-50.5 -54.9,-51.3z" fill="#122341"/>
     <path stroke="null" id="svg_109" d="m84746.399064,55891.489216l0,-29.3c0,0 -87.1,-2.2 -139.1,3.7c-52,5.9 -68.1,26.4 -68.1,26.4l207.2,-0.8z" fill="#E8C287"/>
     <path stroke="null" id="svg_110" d="m84348.699064,55876.289216l187.7,4.8c0.1,-0.1 -109.4,-7.4 -187.7,-4.8zm164.8,-5c-36.3,-2 -108.5,-5.2 -164.7,-3.4l167.8,4.3c-1.1,-0.3 -2.1,-0.6 -3.1,-0.9zm14.7,5c-26.9,-1.6 -114,-6.4 -179.4,-4.2l180.3,4.6c-0.4,-0.1 -0.7,-0.3 -0.9,-0.4zm-179.5,4.1l187.7,4.8c0.1,0 -109.4,-7.3 -187.7,-4.8zm-2.7,4.2l0,0l187,4.8c0,-0.1 -108.8,-7.3 -187,-4.8z" fill="#E79B60"/>
     <path stroke="null" id="svg_111" d="m84564.699064,55876.089216c-0.4,0.2 -0.8,0.3 -1.2,0.5l177,-4.5c-62.7,-2.1 -145.4,2.2 -175.8,4zm14.9,-5c-1.2,0.3 -2.3,0.6 -3.4,1l164.3,-4.2c-54.3,-1.7 -123.5,1.2 -160.9,3.2zm-26.8,14.1l187.7,-4.8c-78.3,-2.5 -187.7,4.8 -187.7,4.8zm3.4,4.1l187.7,-4.8c-78.2,-2.5 -187.7,4.8 -187.7,4.8zm-1.7,-8.4c0,0 -0.1,0 -0.1,0.1l186.1,-4.7c-72.6,-2.4 -171.9,3.7 -186,4.6z" fill="#E79B60"/>
     <path stroke="null" id="svg_112" d="m84746.399064,55894.089216c0,3.4 -2.8,6.2 -6.2,6.2l-403.3,0c-3.4,0 -6.2,-2.8 -6.2,-6.2l0,0c0,-3.4 2.8,-6.2 6.2,-6.2l403.3,0c3.4,0 6.2,2.8 6.2,6.2l0,0z" fill="#C02530"/>
     <path stroke="null" id="svg_113" d="m84543.599064,55888.589216c0,0 -5.1,-7.3 -8.4,-8.8c-3.3,-1.5 2.9,-1.5 8.4,-0.7c5.5,0.7 11.7,6.6 11.7,8.4c0,1.8 -11.7,1.1 -11.7,1.1z" fill="#C02530"/>
     <path stroke="null" id="svg_114" d="m84887.199064,55878.189216c-2.2,2.3 -5.6,2.7 -7.5,0.9l-43.1,-41c-1.9,-1.8 -1.7,-5.2 0.5,-7.5l0,0c2.2,-2.3 5.6,-2.7 7.5,-0.9l43.1,41c2,1.8 1.7,5.2 -0.5,7.5l0,0z" fill="#016476"/>
     <path stroke="null" id="svg_115" d="m84891.699064,55882.489216c-2.9,3.1 -6.1,4.8 -7.2,3.9l-22.6,-21.5c-1,-1 0.6,-4.2 3.5,-7.3l0,0c2.9,-3.1 6.2,-4.8 7.2,-3.9l22.6,21.5c1,0.9 -0.6,4.2 -3.5,7.3l0,0z" fill="#13264A"/>
     <path stroke="null" id="svg_116" d="m84895.699064,55891.889216c0,4.2 -3.4,7.7 -7.7,7.7l-95.2,0c-4.2,0 -7.7,-3.4 -7.7,-7.7l0,0c0,-4.2 3.4,-7.7 7.7,-7.7l95.2,0c4.2,0 7.7,3.5 7.7,7.7l0,0z" fill="#0C1529"/>
     <rect stroke="null" id="svg_117" height="70.2" width="54.6" fill="#037480" y="55806.589216" x="84807.399064"/>
     <g stroke="null" id="svg_118">
      <g stroke="null" id="svg_119">
       <rect stroke="null" id="svg_120" height="1.1" width="56.8" fill="#13264A" y="55815.289216" x="84806.399064"/>
       <rect stroke="null" id="svg_121" height="1.1" width="56.8" fill="#13264A" y="55817.689216" x="84806.399064"/>
       <rect stroke="null" id="svg_122" height="1.1" width="56.8" fill="#13264A" y="55820.089216" x="84806.399064"/>
      </g>
     </g>
     <g stroke="null" id="svg_123">
      <g stroke="null" id="svg_124">
       <rect stroke="null" id="svg_125" height="1.1" width="56.8" fill="#13264A" y="55861.489216" x="84806.399064"/>
       <rect stroke="null" id="svg_126" height="1.1" width="56.8" fill="#13264A" y="55863.989216" x="84806.399064"/>
       <rect stroke="null" id="svg_127" height="1.1" width="56.8" fill="#13264A" y="55866.389216" x="84806.399064"/>
      </g>
     </g>
     <rect stroke="null" id="svg_128" height="33.1" width="54.6" fill="#13264A" y="55825.189216" x="84807.399064"/>
     <path stroke="null" id="svg_129" d="m84868.799064,55879.289216c0,2.6 -2.1,4.7 -4.7,4.7l-58.7,0c-2.6,0 -4.7,-2.1 -4.7,-4.7l0,0c0,-2.6 2.1,-4.7 4.7,-4.7l58.7,0c2.6,-0.1 4.7,2.1 4.7,4.7l0,0z" fill="#13264A"/>
     <path stroke="null" id="svg_130" d="m84868.799064,55803.289216c0,2.6 -2.1,4.7 -4.7,4.7l-58.7,0c-2.6,0 -4.7,-2.1 -4.7,-4.7l0,0c0,-2.6 2.1,-4.7 4.7,-4.7l58.7,0c2.6,-0.1 4.7,2 4.7,4.7l0,0z" fill="#13264A"/>
     <path stroke="null" id="svg_131" d="m84434.499064,55616.889216c0,13 -10.6,23.6 -23.6,23.6l0,0c-13,0 -23.6,-10.6 -23.6,-23.6l0,-15.4c0,-13 10.6,-23.6 23.6,-23.6l0,0c13,0 23.6,10.6 23.6,23.6l0,15.4z" fill="#E6B35D"/>
     <path stroke="null" id="svg_132" d="m84604.699064,55616.889216c0,13 -10.6,23.6 -23.6,23.6l0,0c-13,0 -23.6,-10.6 -23.6,-23.6l0,-15.4c0,-13 10.6,-23.6 23.6,-23.6l0,0c13,0 23.6,10.6 23.6,23.6l0,15.4z" fill="#E6B35D"/>
     <path stroke="null" id="svg_133" d="m84504.099064,55709.289216c0,0 4.4,10.2 -10.2,10.2c-14.6,0 -10.2,-10.2 -10.2,-10.2l0,-39.5l20.5,0l0,39.5l-0.1,0z" fill="#E6B35D"/>
     <path stroke="null" id="svg_134" d="m84577.299064,55609.589216c0,46.4 -37.6,84 -84,84l0,0c-46.4,0 -84,-37.6 -84,-84l0,-60.4c0,-46.4 37.6,-84 84,-84l0,0c46.4,0 84,37.6 84,84l0,60.4z" fill="#D9B56E"/>
     <path stroke="null" id="svg_135" d="m84490.899064,55668.489216c-6.7,0 -13.5,-1.2 -19.9,-4.2c-0.2,-0.1 -0.3,-0.3 -0.2,-0.5c0.1,-0.2 0.3,-0.3 0.5,-0.2c27.3,12.9 62.2,-8.5 62.6,-8.8c0.2,-0.1 0.4,-0.1 0.5,0.1c0.1,0.2 0.1,0.4 -0.1,0.5c-0.3,0.2 -21.2,13.1 -43.4,13.1z" fill="#231F20"/>
     <g stroke="null" id="svg_136">
      <ellipse stroke="null" id="svg_137" ry="13.2" rx="8.1" cy="55595.789216" cx="84532.599064" fill="#231F20"/>
      <ellipse stroke="null" id="svg_138" ry="5.9" rx="4" cy="55597.989216" cx="84534.499064" fill="#FFFFFF"/>
     </g>
     <g stroke="null" id="svg_139">
      <ellipse stroke="null" id="svg_140" ry="13.2" rx="8.1" cy="55595.789216" cx="84464.199064" fill="#231F20"/>
      <ellipse stroke="null" id="svg_141" ry="5.9" rx="4" cy="55597.989216" cx="84465.999064" fill="#FFFFFF"/>
     </g>
     <path stroke="null" id="svg_142" d="m84403.799064,55563.589216c3.7,9.5 6.6,17.6 6.6,17.6s6.6,-19 11,-31.5c4.4,-12.4 2.9,-23.4 2.9,-23.4s32.2,11 63.7,13.9c31.5,2.9 84.2,9.5 84.2,9.5l5.9,24.9c0,0 7.3,-21.2 7.3,-31.5c0,-10.2 8.8,-65.9 -35.1,-84.2c-43.9,-18.3 -95.9,-13.9 -120.8,11c0,0 -6.6,-3.7 -16.1,2.9c-32.3,16.2 -13.3,81.3 -9.6,90.8z" fill="#231F20"/>
     <path stroke="null" id="svg_143" d="m84482.099064,55711.689216c0,0 -2.7,5.4 -2.7,8.1c0,2.7 5.8,9 7.2,10.8c1.3,1.8 13.9,0.9 18,-1.3c4,-2.2 5.4,-10.3 5.4,-10.3l-3.6,-7.6c-15.8,-4.6 -24.3,0.3 -24.3,0.3z" fill="#C02530"/>
     <path stroke="null" id="svg_144" d="m84328.399064,55883.489216c0,0 -2.7,-21.4 -28,-19.2c-25.3,2.2 -35.1,12.6 -33.5,23.6c1.7,11 56.6,20.3 61.5,-4.4z" fill="#C6AA9D"/>
     <path stroke="null" id="svg_145" d="m84324.599064,55901.589216c0,0 -3.3,-25.8 -25.8,-26.9c-22.5,-1.1 -55.4,12.6 -54.9,22.5c0.5,9.9 47.8,5.5 54.3,5.5s7.1,-7.1 7.1,-7.1s4.9,8.8 11,8.8c6.1,-0.1 8.3,-2.8 8.3,-2.8z" fill="#D9B56E"/>
     <path stroke="null" id="svg_146" d="m84458.699064,56358.489216c0,0 -4.4,-27.8 -32.2,-27.8c-27.8,0 -71.7,4.4 -71.7,29.3c0,0 13.2,13.2 48.3,13.2c35.1,0 55.6,-14.7 55.6,-14.7z" fill="#122341"/>
     <path stroke="null" id="svg_147" d="m84540.699064,56358.489216c0,0 4.4,-27.8 32.2,-27.8c27.8,0 71.7,4.4 71.7,29.3c0,0 -13.2,13.2 -48.3,13.2c-35.1,0 -55.6,-14.7 -55.6,-14.7z" fill="#122341"/>
     <g stroke="null" id="svg_149">
      <g stroke="null" id="svg_153"/>
     </g>
     <g stroke="null" id="svg_167">
      <circle stroke="null" id="svg_168" r="99.699997" cy="55258.602153" cx="84153.115794" fill="#8BBA8B"/>
      <g stroke="null" id="svg_169">
       <g stroke="null" id="svg_170">
        <circle stroke="null" id="svg_171" r="81.5" cy="55258.602153" cx="84153.115794" fill="#E8E8AD"/>
       </g>
      </g>
      <circle stroke="null" id="svg_172" r="7.8" cy="55258.602153" cx="84153.115794" fill="#8BBA8B"/>
      <rect stroke="null" id="svg_173" height="46.8" width="3.5" fill="#8BBA8B" y="55211.702153" x="84151.415794"/>
      <rect stroke="null" id="svg_174" height="67.8" width="3.5" fill="#8BBA8B" transform="matrix(-0.7502,0.6612,-0.6612,-0.7502,2325.4644,-188.0448) " y="-95769.610654" x="-24727.988869"/>
      <rect stroke="null" id="svg_175" height="15.3" width="1.8" fill="#8BBA8B" y="55182.502153" x="84152.315794"/>
      <rect stroke="null" id="svg_176" height="1.8" width="15.3" fill="#8BBA8B" y="55257.702153" x="84213.915794"/>
      <rect stroke="null" id="svg_177" height="15.3" width="1.8" fill="#8BBA8B" y="55319.302153" x="84152.315794"/>
      <rect stroke="null" id="svg_178" height="1.8" width="15.3" fill="#8BBA8B" y="55257.702153" x="84077.115794"/>
     </g>
     <ellipse stroke="null" id="svg_179" ry="10.9" rx="125.6" cy="56348.689216" cx="83809.099064" fill="#BFD299" opacity="0.55"/>
     <g stroke="null" id="svg_180">
      <g stroke="null" id="svg_181">
       <rect stroke="null" id="svg_182" height="515.7" width="11.1" fill="#92A97D" y="55715.489216" x="83803.499064"/>
       <path stroke="null" id="svg_183" d="m83809.099064,55647.889216c0,0 -44.3,49 0,81.7c44.3,-32.7 0,-81.7 0,-81.7z" fill="#E8E8AD"/>
       <path stroke="null" id="svg_184" d="m83874.399064,55725.789216c0,0 -66.1,1.6 -59.3,56.2c54.2,9.7 59.3,-56.2 59.3,-56.2z" fill="#E8E8AD"/>
       <path stroke="null" id="svg_185" d="m83874.399064,55802.289216c0,0 -66.1,1.6 -59.3,56.2c54.2,9.7 59.3,-56.2 59.3,-56.2z" fill="#E8E8AD"/>
       <path stroke="null" id="svg_186" d="m83874.399064,55878.789216c0,0 -66.1,1.6 -59.3,56.2c54.2,9.7 59.3,-56.2 59.3,-56.2z" fill="#E8E8AD"/>
       <path stroke="null" id="svg_187" d="m83874.399064,55955.289216c0,0 -66.1,1.6 -59.3,56.2c54.2,9.7 59.3,-56.2 59.3,-56.2z" fill="#E8E8AD"/>
       <path stroke="null" id="svg_188" d="m83874.399064,56031.789216c0,0 -66.1,1.6 -59.3,56.2c54.2,9.7 59.3,-56.2 59.3,-56.2z" fill="#E8E8AD"/>
       <path stroke="null" id="svg_189" d="m83874.399064,56108.289216c0,0 -66.1,1.6 -59.3,56.2c54.2,9.7 59.3,-56.2 59.3,-56.2z" fill="#E8E8AD"/>
       <path stroke="null" id="svg_190" d="m83743.499064,55725.789216c0,0 66.1,1.6 59.3,56.2c-54.2,9.7 -59.3,-56.2 -59.3,-56.2z" fill="#E8E8AD"/>
       <path stroke="null" id="svg_191" d="m83743.499064,55802.289216c0,0 66.1,1.6 59.3,56.2c-54.2,9.7 -59.3,-56.2 -59.3,-56.2z" fill="#E8E8AD"/>
       <path stroke="null" id="svg_192" d="m83743.499064,55878.789216c0,0 66.1,1.6 59.3,56.2c-54.2,9.7 -59.3,-56.2 -59.3,-56.2z" fill="#E8E8AD"/>
       <path stroke="null" id="svg_193" d="m83743.499064,55955.289216c0,0 66.1,1.6 59.3,56.2c-54.2,9.7 -59.3,-56.2 -59.3,-56.2z" fill="#E8E8AD"/>
       <path stroke="null" id="svg_194" d="m83743.499064,56031.789216c0,0 66.1,1.6 59.3,56.2c-54.2,9.7 -59.3,-56.2 -59.3,-56.2z" fill="#E8E8AD"/>
       <path stroke="null" id="svg_195" d="m83743.499064,56108.289216c0,0 66.1,1.6 59.3,56.2c-54.2,9.7 -59.3,-56.2 -59.3,-56.2z" fill="#E8E8AD"/>
      </g>
      <g stroke="null" id="svg_196">
       <polygon stroke="null" id="svg_197" points="83809.1015625,56222.594131127 83730.1015625,56222.594131127 83741.6015625,56350.891006127 83809.1015625,56350.891006127 83876.5,56350.891006127 83888.1015625,56222.594131127 " fill="#8BBA8B"/>
       <rect stroke="null" id="svg_198" height="27.2" width="186" fill="#8BBA8B" y="56195.389216" x="83716.099064"/>
       <polygon stroke="null" id="svg_199" points="83730.1015625,56222.594131127 83730.8046875,56231.191787377 83887.3046875,56231.191787377 83888.1015625,56222.594131127 83809.1015625,56222.594131127 " fill="#E8E8AD"/>
      </g>
     </g>
    </g>
   </g>
  </g>
 </g>
</svg>