<svg height="512pt" viewBox="0 0 512 512" width="512pt" xmlns="http://www.w3.org/2000/svg"><path d="m512 256c0 141.386719-114.613281 256-256 256s-256-114.613281-256-256 114.613281-256 256-256 256 114.613281 256 256zm0 0" fill="#57545c"/><path d="m512 256c0-41.71875-9.984375-81.105469-27.6875-115.90625l-54.136719-54.136719h-143.242187l-7.320313-7.316406c-5.921875-6.269531-47.027343-3.082031-52.449219 7.316406l-145.339843 30 35.175781 30.542969-53.851562 147.949219c0 18.984375 8.539062 35.960937 21.972656 47.335937l75.492187 75.761719-8.316406 30 60.863281 60.863281c13.933594 2.347656 28.242188 3.589844 42.839844 3.589844 141.386719 0 256-114.613281 256-256zm0 0" fill="#3a383f"/><path d="m155.714844 106.949219h-34.515625l-49.800781 154.257812 28.546874 9.21875 38.511719-119.28125 38.511719 119.28125 28.546875-9.21875zm0 0" fill="#ffe767"/><path d="m151.769531 356.449219h-26.621093c-34.242188 0-62-27.757813-62-62v-39.585938h150.621093v39.585938c0 34.242187-27.757812 62-62 62zm0 0" fill="#00ec88"/><path d="m390.800781 106.949219h-34.515625l-49.800781 154.257812 28.546875 9.21875 38.511719-119.28125 38.511719 119.28125 28.546874-9.21875zm0 0" fill="#ffc100"/><path d="m386.851562 356.449219h-26.621093c-34.242188 0-62-27.757813-62-62v-39.585938h150.621093v39.585938c0 34.242187-27.757812 62-62 62zm0 0" fill="#00ca76"/><path d="m231.113281 109.449219h49.773438v269.386719h-49.773438zm0 0" fill="#ff6339"/><path d="m256 109.449219h24.878906v269.390625h-24.878906zm0 0" fill="#fa0023"/><path d="m188.75 372.949219h134.5v49h-134.5zm0 0" fill="#fad818"/><path d="m256 372.949219h67.25v49h-67.25zm0 0" fill="#f4b913"/><path d="m152.296875 417.546875h207.40625v30h-207.40625zm0 0" fill="#00ec88"/><path d="m63.148438 252.195312h150.621093v30h-150.621093zm0 0" fill="#00ca76"/><path d="m298.230469 252.195312h150.621093v30h-150.621093zm0 0" fill="#00a863"/><path d="m81.824219 85.957031h348.351562v30h-348.351562zm0 0" fill="#00ec88"/><path d="m256 85.960938h174.171875v30h-174.171875zm0 0" fill="#00ca76"/><path d="m256 417.550781h103.703125v30h-103.703125zm0 0" fill="#00ca76"/><path d="m288.507812 100.957031c0 17.953125-14.554687 32.507813-32.507812 32.507813s-32.507812-14.554688-32.507812-32.507813 14.554687-32.507812 32.507812-32.507812 32.507812 14.554687 32.507812 32.507812zm0 0" fill="#fad818"/><path d="m288.511719 100.960938c0 5.410156-1.320313 10.507812-3.660157 15-1.113281 2.117187-2.441406 4.109374-3.972656 5.917968-5.96875 7.082032-14.898437 11.582032-24.878906 11.582032v-65.011719c12.539062 0 23.429688 7.101562 28.851562 17.511719 2.339844 4.480468 3.660157 9.589843 3.660157 15zm0 0" fill="#f4b913"/></svg>